<?xml version="1.0" standalone="no"?>
<!DOCTYPE svg PUBLIC "-//W3C//DTD SVG 20010904//EN"
  "http://www.w3.org/TR/2001/REC-SVG-20010904/DTD/svg10.dtd">
<svg height="270.000000pt" preserveAspectRatio="xMidYMid meet"
     version="1.0" viewBox="0 0 270.000000 270.000000" width="270.000000pt"
     xmlns="http://www.w3.org/2000/svg">
  <metadata>
    Created by potrace 1.16, written by Peter Selinger 2001-2019
  </metadata>
  <g fill="#000000"
     stroke="none" transform="translate(0.000000,270.000000) scale(0.100000,-0.100000)">
    <path d="M1236 1915 c-113 -43 -174 -152 -145 -257 l12 -43 15 58 c8 31 17 57
21 57 3 0 17 -24 31 -53 14 -29 33 -53 43 -55 10 -2 17 0 15 5 -1 4 2 33 6 63
14 94 43 130 104 130 58 0 97 -81 73 -151 -10 -30 -9 -34 33 -75 24 -24 48
-44 54 -44 18 0 55 91 60 146 8 92 -32 165 -112 206 -53 27 -156 33 -210 13z"/>
    <path d="M120 1828 c1 -35 47 -108 100 -159 l60 -57 0 -305 c0 -342 6 -315
-78 -364 l-47 -28 45 -3 c25 -2 158 -2 295 0 272 4 301 10 396 73 38 24 39 27
39 83 0 40 -3 53 -10 42 -7 -11 -10 -4 -10 27 0 71 20 141 56 194 l34 51 -32
-6 c-18 -3 -57 -9 -85 -12 -51 -7 -53 -8 -53 -38 0 -86 -50 -163 -123 -191
-28 -11 -66 -15 -112 -13 l-70 3 0 225 0 225 58 3 c128 7 212 -46 238 -150 12
-46 14 -48 49 -48 27 0 43 7 65 30 16 17 51 45 77 61 l48 31 -15 34 c-40 97
-128 177 -241 220 -66 25 -81 26 -334 33 -246 7 -268 9 -307 29 -30 16 -43 18
-43 10z"/>
    <path d="M1616 1817 c15 -49 39 -85 95 -142 47 -48 59 -68 63 -100 2 -22 5
-41 5 -43 1 -1 14 4 31 13 34 17 44 19 35 5 -4 -6 4 -6 21 1 16 5 55 12 87 14
32 2 61 6 65 9 11 12 119 6 168 -9 103 -30 155 -133 133 -264 -10 -67 -32
-110 -70 -139 -31 -24 -84 -42 -124 -42 l-32 0 23 -47 c28 -54 30 -80 10 -128
l-15 -35 28 0 c156 0 335 109 396 242 116 253 -9 538 -270 618 -24 7 -144 15
-300 19 -237 6 -264 9 -308 29 l-48 21 7 -22z"/>
    <path d="M1266 1685 c-3 -9 -6 -39 -6 -65 0 -39 4 -52 20 -60 11 -6 25 -20 31
-33 11 -21 11 -21 -7 -6 -10 9 -34 24 -52 33 -18 10 -52 34 -74 54 l-41 37 6
-40 7 -41 -38 4 -37 4 23 -24 c12 -13 22 -31 22 -39 0 -9 -28 -31 -61 -50
l-61 -34 34 -6 c49 -8 58 -16 58 -54 l0 -34 59 32 c33 18 53 33 45 35 -43 10
22 51 90 59 l41 4 -38 -15 c-49 -18 -53 -23 -28 -31 20 -6 20 -8 -9 -32 -40
-33 -38 -43 8 -43 25 0 45 -7 55 -18 19 -20 23 -67 7 -77 -16 -10 -12 -28 5
-21 18 7 20 -5 3 -22 -21 -21 13 -14 52 10 27 17 31 23 18 26 -17 3 -22 13
-19 38 1 7 -6 14 -15 18 -12 4 -14 14 -9 36 5 23 3 30 -9 30 -9 0 -16 5 -16
10 0 6 29 10 66 10 65 0 66 -1 60 -24 -5 -21 -2 -25 29 -30 23 -5 39 -15 48
-32 12 -24 14 -24 29 -7 19 21 40 93 28 93 -5 0 -12 -5 -15 -11 -10 -15 -45
25 -45 51 0 34 -18 60 -96 141 -40 41 -76 88 -80 104 -6 26 -8 27 -15 10 -14
-36 -9 -45 56 -115 36 -38 65 -73 65 -77 0 -18 -154 145 -170 180 -13 29 -19
34 -24 22z"/>
    <path d="M1819 1485 c-49 -39 -59 -42 -59 -20 0 22 -7 19 -43 -21 -70 -80 -89
-125 -30 -74 44 39 102 66 158 74 l40 6 -42 -14 c-60 -20 -129 -66 -188 -126
l-50 -51 35 -29 c19 -16 37 -30 40 -30 3 0 19 26 35 57 61 117 144 173 216
146 21 -8 39 -6 81 8 29 10 68 18 86 19 43 0 34 14 -28 45 -53 27 -119 33
-165 15 -33 -12 -51 -4 -34 16 21 26 -8 14 -52 -21z"/>
    <path d="M1015 1339 c-34 -38 -65 -94 -65 -118 0 -5 9 -7 19 -4 19 5 19 3 4
-54 -25 -94 -6 -203 47 -270 19 -24 20 -25 20 -4 0 29 11 26 46 -10 16 -17 52
-43 79 -57 65 -34 175 -36 247 -4 59 26 131 92 166 151 l26 44 -45 39 c-24 21
-47 38 -51 38 -4 0 -17 -14 -29 -31 -32 -45 -106 -89 -149 -89 -83 0 -150 90
-136 183 4 24 22 70 41 101 38 63 29 72 -33 34 l-35 -21 5 36 c2 21 1 37 -3
37 -4 0 -33 -24 -65 -52 l-57 -53 7 73 c4 39 5 72 3 72 -3 0 -21 -18 -42 -41z"/>
    <path d="M1863 1373 c-12 -2 -37 -21 -56 -42 -32 -35 -33 -41 -35 -117 -2 -86
6 -111 33 -100 18 6 17 19 -1 85 l-7 25 44 -26 c32 -19 63 -27 112 -30 l67 -4
0 108 c0 59 -3 108 -7 108 -3 0 -14 -7 -23 -15 -15 -14 -21 -14 -53 0 -20 8
-40 14 -44 14 -4 -1 -18 -4 -30 -6z"/>
    <path d="M1390 1332 c0 -7 15 -29 34 -50 19 -20 39 -55 45 -78 9 -33 26 -53
91 -108 84 -70 87 -75 93 -173 2 -49 8 -68 27 -88 32 -34 39 -32 33 13 -3 23
1 44 10 56 13 18 15 17 21 -17 9 -47 56 -93 108 -107 48 -14 119 0 158 30 l25
20 -27 0 c-15 0 -39 5 -55 12 l-28 12 25 3 c55 9 90 26 120 59 59 68 31 174
-57 210 -18 8 -40 14 -50 13 -11 0 -13 -3 -5 -6 24 -9 43 -60 32 -87 -11 -29
-57 -56 -95 -56 -25 0 -25 0 -9 31 17 33 13 81 -8 106 -9 11 -14 8 -29 -17
-30 -49 -62 -41 -164 40 -62 50 -99 72 -126 76 -33 6 -40 11 -47 37 -7 26 -15
33 -47 39 -21 5 -47 16 -57 25 -11 10 -18 12 -18 5z"/>
  </g>
</svg>
